<?xml version="1.0" standalone="no"?>
<!DOCTYPE svg PUBLIC "-//W3C//DTD SVG 20010904//EN"
 "http://www.w3.org/TR/2001/REC-SVG-20010904/DTD/svg10.dtd">
<svg version="1.0" xmlns="http://www.w3.org/2000/svg"
 width="387.000000pt" height="387.000000pt" viewBox="0 0 387.000000 387.000000"
 preserveAspectRatio="xMidYMid meet">
<metadata>
Created by potrace 1.14, written by Peter Selinger 2001-2017
</metadata>
<g transform="translate(0.000000,387.000000) scale(0.100000,-0.100000)"
fill="#000000" stroke="none">
<path d="M1068 2643 l-88 -4 0 -124 0 -125 353 0 c402 0 420 -3 482 -71 20
-22 40 -51 45 -65 16 -42 11 -145 -9 -189 -23 -51 -79 -101 -128 -114 -21 -6
-135 -11 -255 -11 l-218 0 -2 178 -3 177 -133 3 -132 3 2 -538 3 -538 130 0
130 0 3 238 2 238 122 -3 122 -3 36 -105 c20 -58 46 -123 57 -145 41 -79 111
-163 160 -192 47 -27 51 -28 226 -31 172 -4 205 2 154 25 -46 21 -147 114
-190 175 -55 78 -80 126 -107 210 -12 37 -28 69 -36 72 -25 10 -15 24 24 31
60 11 138 53 187 101 99 96 146 276 113 436 -42 203 -165 329 -348 358 -70 11
-558 20 -702 13z"/>
<path d="M2000 2647 c0 -2 26 -32 58 -64 31 -33 71 -87 87 -121 l30 -61 116
-1 c125 0 165 -9 217 -47 43 -32 62 -72 62 -132 0 -98 -64 -137 -244 -147
l-113 -7 -13 -56 c-7 -31 -25 -81 -41 -112 l-28 -57 152 -4 c141 -4 156 -6
209 -31 66 -32 102 -71 119 -128 11 -34 10 -46 -7 -86 -39 -95 -157 -128 -434
-121 -109 2 -150 0 -150 -9 0 -6 32 -41 72 -78 118 -109 263 -164 394 -151
172 18 316 110 366 235 18 44 22 77 23 156 0 88 -3 107 -27 157 -30 64 -104
144 -148 160 -29 10 -41 28 -19 28 5 0 35 23 64 51 65 61 95 131 95 217 0 154
-78 285 -203 346 -100 49 -157 58 -404 63 -128 3 -233 3 -233 0z"/>
</g>
</svg>
